<svg viewBox="0 0 165 115" fill="none" xmlns="http://www.w3.org/2000/svg">
  <path d="M 5,62 C 30,12 65,8 90,32 C 115,56 140,38 158,44" stroke="#d4956e" stroke-width="1.4" stroke-linecap="round" fill="none"/>
  <path d="M 5,66 C 30,16 65,12 90,36 C 115,60 140,42 158,48" stroke="#ce8f69" stroke-width="1.4" stroke-linecap="round" fill="none"/>
  <path d="M 5,70 C 30,20 65,16 90,40 C 115,64 140,46 158,52" stroke="#c98a65" stroke-width="1.4" stroke-linecap="round" fill="none"/>
  <path d="M 5,74 C 30,24 65,20 90,44 C 115,68 140,50 158,56" stroke="#c38460" stroke-width="1.4" stroke-linecap="round" fill="none"/>
  <path d="M 5,78 C 30,28 65,24 90,48 C 115,72 140,54 158,60" stroke="#be7e5b" stroke-width="1.4" stroke-linecap="round" fill="none"/>
  <path d="M 5,82 C 30,32 65,28 90,52 C 115,76 140,58 158,64" stroke="#b87856" stroke-width="1.4" stroke-linecap="round" fill="none"/>
  <path d="M 5,86 C 30,36 65,32 90,56 C 115,80 140,62 158,68" stroke="#b37351" stroke-width="1.4" stroke-linecap="round" fill="none"/>
  <path d="M 5,90 C 30,40 65,36 90,60 C 115,84 140,66 158,72" stroke="#ad6d4d" stroke-width="1.4" stroke-linecap="round" fill="none"/>
  <path d="M 5,94 C 30,44 65,40 90,64 C 115,88 140,70 158,76" stroke="#a76748" stroke-width="1.4" stroke-linecap="round" fill="none"/>
  <path d="M 5,98 C 30,48 65,44 90,68 C 115,92 140,74 158,80" stroke="#a26243" stroke-width="1.4" stroke-linecap="round" fill="none"/>
  <path d="M 5,102 C 30,52 65,48 90,72 C 115,96 140,78 158,84" stroke="#9c5c3e" stroke-width="1.4" stroke-linecap="round" fill="none"/>
  <path d="M 5,106 C 30,56 65,52 90,76 C 115,100 140,82 158,88" stroke="#975639" stroke-width="1.4" stroke-linecap="round" fill="none"/>
  <path d="M 5,110 C 30,60 65,56 90,80 C 115,104 140,86 158,92" stroke="#915035" stroke-width="1.4" stroke-linecap="round" fill="none"/>
  <path d="M 5,114 C 30,64 65,60 90,84 C 115,108 140,90 158,96" stroke="#8b4a31" stroke-width="1.4" stroke-linecap="round" fill="none"/>
</svg>
